<?xml version="1.0" encoding="utf-8"?>
<!-- Generator: Adobe Illustrator 25.0.1, SVG Export Plug-In . SVG Version: 6.00 Build 0)  -->
<svg version="1.1" id="Layer_1" xmlns="http://www.w3.org/2000/svg" xmlns:xlink="http://www.w3.org/1999/xlink" x="0px" y="0px"
	 viewBox="0 0 1366 768" style="enable-background:new 0 0 1366 768;" xml:space="preserve">
<style type="text/css">
	.st0{clip-path:url(#SVGID_2_);}
	.st1{clip-path:url(#SVGID_4_);}
	.st2{clip-path:url(#SVGID_6_);fill:#FFFFFF;}
	.st3{clip-path:url(#SVGID_4_);fill:#FFFFFF;}
</style>
<g>
	<defs>
		<rect id="SVGID_1_" x="339" y="43" width="688" height="688"/>
	</defs>
	<clipPath id="SVGID_2_">
		<use xlink:href="#SVGID_1_"  style="overflow:visible;"/>
	</clipPath>
	<g class="st0">
		<defs>
			<rect id="SVGID_3_" x="339" y="43" width="688" height="688"/>
		</defs>
		<clipPath id="SVGID_4_">
			<use xlink:href="#SVGID_3_"  style="overflow:visible;"/>
		</clipPath>
		<g class="st1">
			<g>
				<defs>
					<rect id="SVGID_5_" x="-39.47" y="-333.71" width="1444.95" height="1436.13"/>
				</defs>
				<clipPath id="SVGID_6_">
					<use xlink:href="#SVGID_5_"  style="overflow:visible;"/>
				</clipPath>
				<path class="st2" d="M683,731.06c-189.72,0-344.06-154.35-344.06-344.07c0-189.72,154.35-344.06,344.06-344.06
					c189.72,0,344.06,154.35,344.06,344.06C1027.06,576.72,872.72,731.06,683,731.06z M683,44.01
					c-189.12,0-342.99,153.86-342.99,342.99c0,189.12,153.86,342.99,342.99,342.99S1025.99,576.12,1025.99,387
					C1025.99,197.88,872.12,44.01,683,44.01z"/>
				<path class="st2" d="M683,690.27c-167.23,0-303.27-136.05-303.27-303.27c0-167.23,136.05-303.27,303.27-303.27
					c167.23,0,303.27,136.05,303.27,303.27C986.27,554.23,850.23,690.27,683,690.27z M683,85.88
					c-166.04,0-301.12,135.08-301.12,301.12c0,166.04,135.08,301.12,301.12,301.12S984.12,553.04,984.12,387
					C984.12,220.96,849.04,85.88,683,85.88z"/>
				<path class="st2" d="M683,665.76c-153.71,0-278.76-125.05-278.76-278.76c0-153.71,125.05-278.76,278.76-278.76
					c153.71,0,278.76,125.05,278.76,278.76C961.76,540.71,836.71,665.76,683,665.76z M683,113.62
					c-150.74,0-273.37,122.64-273.37,273.37c0,150.74,122.64,273.38,273.37,273.38c150.74,0,273.37-122.64,273.37-273.38
					C956.37,236.26,833.74,113.62,683,113.62z"/>
				<path class="st2" d="M683,648.16C539,648.16,421.84,531,421.84,387S539,125.84,683,125.84C827,125.84,944.16,243,944.16,387
					S827,648.16,683,648.16z M683,138.77c-136.87,0-248.23,111.35-248.23,248.23S546.13,635.23,683,635.23
					c136.87,0,248.23-111.35,248.23-248.23S819.87,138.77,683,138.77z"/>
			</g>
		</g>
		<path class="st3" d="M840.83,435.52v-6.2h10.02v-3.75h-10.02v-5.73h11.59v-4.05h-16.22v23.79h16.52v-4.05H840.83z M826.16,439.58
			h3.75v-23.76h-4.62v15.58l-12.4-15.61h-3.59v23.79h4.62v-15.25L826.16,439.58z M786.89,424.78c0.29-0.95,0.72-1.8,1.29-2.55
			c0.57-0.75,1.26-1.35,2.08-1.81c0.82-0.46,1.76-0.69,2.83-0.69c1.03,0,1.95,0.22,2.76,0.65c0.82,0.44,1.51,1.02,2.08,1.76
			c0.57,0.74,1.01,1.59,1.32,2.55c0.31,0.96,0.47,1.95,0.47,2.98c0,0.98-0.15,1.95-0.44,2.9c-0.29,0.95-0.72,1.8-1.27,2.56
			c-0.56,0.76-1.24,1.37-2.06,1.83c-0.82,0.46-1.76,0.69-2.83,0.69c-1.05,0-1.99-0.22-2.81-0.67c-0.83-0.45-1.52-1.04-2.09-1.78
			c-0.57-0.74-1.01-1.59-1.31-2.55c-0.3-0.96-0.45-1.95-0.45-2.98C786.45,426.7,786.6,425.73,786.89,424.78 M797.57,438.76
			c1.39-0.66,2.58-1.54,3.59-2.65s1.79-2.38,2.36-3.82c0.57-1.44,0.85-2.95,0.85-4.54c0-1.5-0.27-2.97-0.8-4.42
			c-0.54-1.45-1.3-2.75-2.28-3.89c-0.98-1.14-2.17-2.06-3.55-2.76c-1.39-0.7-2.92-1.06-4.59-1.06c-1.63,0-3.14,0.33-4.52,0.99
			c-1.39,0.66-2.59,1.55-3.6,2.66c-1.02,1.12-1.81,2.4-2.38,3.85c-0.57,1.45-0.85,2.97-0.85,4.56c0,1.52,0.27,3.01,0.8,4.46
			c0.54,1.45,1.3,2.74,2.3,3.87c0.99,1.13,2.18,2.03,3.57,2.71c1.39,0.68,2.92,1.02,4.59,1.02
			C794.68,439.75,796.19,439.42,797.57,438.76 M758.94,415.79l8.61,15.41v8.38h4.59v-8.31l8.64-15.48h-4.99l-5.96,11.46l-5.86-11.46
			H758.94z M743.43,419.84h5.6c0.4,0,0.8,0.1,1.19,0.28c0.39,0.19,0.74,0.46,1.04,0.8c0.3,0.35,0.54,0.75,0.72,1.22
			c0.18,0.47,0.27,0.98,0.27,1.54c0,0.54-0.08,1.04-0.23,1.51c-0.16,0.47-0.37,0.88-0.64,1.22c-0.27,0.35-0.59,0.62-0.95,0.82
			c-0.37,0.2-0.77,0.3-1.19,0.3h-5.8V419.84z M743.43,439.58v-7.97h4.56l4.99,7.97h5.23l-5.6-8.95c1.32-0.56,2.36-1.47,3.13-2.73
			c0.77-1.26,1.16-2.66,1.16-4.21c0-0.96-0.19-1.92-0.57-2.86c-0.38-0.95-0.9-1.8-1.57-2.55c-0.67-0.75-1.47-1.35-2.4-1.81
			c-0.93-0.46-1.94-0.69-3.03-0.69H738.8v23.79H743.43z M721.85,435.52v-6.2h10.02v-3.75h-10.02v-5.73h11.59v-4.05h-16.22v23.79
			h16.52v-4.05H721.85z M690.86,415.79l9.35,23.79h3.89l9.28-23.79h-4.86l-6.37,17.99l-6.43-17.99H690.86z M676.38,435.52v-6.2
			h10.02v-3.75h-10.02v-5.73h11.59v-4.05h-16.22v23.79h16.52v-4.05H676.38z M643.11,419.84h5.6c0.4,0,0.8,0.1,1.19,0.28
			c0.39,0.19,0.74,0.46,1.04,0.8c0.3,0.35,0.54,0.75,0.72,1.22s0.27,0.98,0.27,1.54c0,0.54-0.08,1.04-0.23,1.51
			c-0.16,0.47-0.37,0.88-0.64,1.22c-0.27,0.35-0.59,0.62-0.95,0.82c-0.37,0.2-0.77,0.3-1.19,0.3h-5.8V419.84z M643.11,439.58v-7.97
			h4.56l4.99,7.97h5.23l-5.6-8.95c1.32-0.56,2.36-1.47,3.13-2.73c0.77-1.26,1.16-2.66,1.16-4.21c0-0.96-0.19-1.92-0.57-2.86
			c-0.38-0.95-0.9-1.8-1.57-2.55c-0.67-0.75-1.47-1.35-2.4-1.81c-0.93-0.46-1.94-0.69-3.03-0.69h-10.52v23.79H643.11z
			 M616.07,424.78c0.29-0.95,0.72-1.8,1.29-2.55c0.57-0.75,1.26-1.35,2.08-1.81c0.82-0.46,1.76-0.69,2.83-0.69
			c1.03,0,1.95,0.22,2.76,0.65c0.82,0.44,1.51,1.02,2.08,1.76c0.57,0.74,1.01,1.59,1.32,2.55c0.31,0.96,0.47,1.95,0.47,2.98
			c0,0.98-0.15,1.95-0.44,2.9c-0.29,0.95-0.72,1.8-1.27,2.56c-0.56,0.76-1.25,1.37-2.06,1.83c-0.82,0.46-1.76,0.69-2.83,0.69
			c-1.05,0-1.99-0.22-2.81-0.67c-0.83-0.45-1.52-1.04-2.09-1.78c-0.57-0.74-1.01-1.59-1.31-2.55c-0.3-0.96-0.45-1.95-0.45-2.98
			C615.64,426.7,615.78,425.73,616.07,424.78 M626.76,438.76c1.39-0.66,2.58-1.54,3.59-2.65s1.79-2.38,2.36-3.82
			c0.57-1.44,0.85-2.95,0.85-4.54c0-1.5-0.27-2.97-0.8-4.42c-0.54-1.45-1.3-2.75-2.28-3.89c-0.98-1.14-2.17-2.06-3.55-2.76
			c-1.39-0.7-2.92-1.06-4.59-1.06c-1.63,0-3.14,0.33-4.52,0.99c-1.39,0.66-2.59,1.55-3.6,2.66c-1.02,1.12-1.81,2.4-2.38,3.85
			c-0.57,1.45-0.85,2.97-0.85,4.56c0,1.52,0.27,3.01,0.8,4.46c0.54,1.45,1.3,2.74,2.3,3.87c0.99,1.13,2.18,2.03,3.57,2.71
			c1.39,0.68,2.92,1.02,4.59,1.02C623.87,439.75,625.38,439.42,626.76,438.76 M596.97,439.58v-9.85h9.45v-3.75h-9.45v-6.13h11.36
			v-4.05h-15.98v23.79H596.97z M579.62,415.79h-19.8v4.05h7.61v19.74h4.62v-19.74h7.57V415.79z M543.1,419.84h5.6
			c0.4,0,0.8,0.1,1.19,0.28c0.39,0.19,0.74,0.46,1.04,0.8c0.3,0.35,0.54,0.75,0.72,1.22c0.18,0.47,0.27,0.98,0.27,1.54
			c0,0.54-0.08,1.04-0.23,1.51c-0.16,0.47-0.37,0.88-0.64,1.22c-0.27,0.35-0.59,0.62-0.95,0.82c-0.37,0.2-0.77,0.3-1.19,0.3h-5.8
			V419.84z M543.1,439.58v-7.97h4.56l4.99,7.97h5.23l-5.6-8.95c1.32-0.56,2.36-1.47,3.13-2.73c0.77-1.26,1.16-2.66,1.16-4.21
			c0-0.96-0.19-1.92-0.57-2.86c-0.38-0.95-0.9-1.8-1.57-2.55c-0.67-0.75-1.47-1.35-2.4-1.81c-0.93-0.46-1.94-0.69-3.03-0.69h-10.52
			v23.79H543.1z M526.68,430.4h-6.73l3.42-9.62L526.68,430.4z M516.99,439.58l2.18-5.93h8.34l2.18,5.93h4.89l-9.35-23.79h-3.75
			l-9.38,23.79H516.99z"/>
		<path class="st3" d="M859.76,334.71c-2.04-1.95-4.32-3.4-6.83-4.35c-2.51-0.95-5.36-1.43-8.57-1.43c-2.6,0-4.97,0.3-7.11,0.91
			c-2.14,0.6-3.97,1.5-5.5,2.68c-1.53,1.18-2.73,2.64-3.59,4.35c-0.86,1.72-1.29,3.69-1.29,5.92c0,2.04,0.35,3.74,1.04,5.09
			c0.7,1.35,1.74,2.5,3.13,3.45c1.39,0.95,3.1,1.74,5.12,2.37c2.02,0.63,4.35,1.22,7,1.78c2.6,0.56,4.86,1.14,6.79,1.74
			c1.93,0.6,3.54,1.32,4.84,2.16c1.3,0.84,2.26,1.82,2.89,2.96c0.63,1.14,0.94,2.52,0.94,4.14c0,3.2-1.22,5.6-3.66,7.18
			c-2.44,1.58-5.82,2.37-10.13,2.37c-3.76,0-7.15-0.64-10.17-1.92c-3.02-1.28-5.57-3.01-7.66-5.19l-1.88,2.86
			c5.34,4.92,11.86,7.38,19.57,7.38c2.65,0,5.05-0.28,7.21-0.84c2.16-0.56,4.02-1.38,5.57-2.47c1.56-1.09,2.76-2.45,3.62-4.08
			c0.86-1.62,1.29-3.53,1.29-5.71c0-2.18-0.41-4.02-1.22-5.5c-0.81-1.48-1.97-2.74-3.48-3.76c-1.51-1.02-3.33-1.87-5.47-2.54
			c-2.14-0.67-4.55-1.29-7.24-1.85c-2.51-0.51-4.68-1.03-6.51-1.57c-1.83-0.53-3.34-1.16-4.53-1.88c-1.18-0.72-2.05-1.61-2.61-2.68
			c-0.56-1.07-0.84-2.39-0.84-3.97c0-3.11,1.1-5.58,3.31-7.42c2.21-1.83,5.72-2.75,10.55-2.75c5.85,0,10.38,1.79,13.58,5.36
			L859.76,334.71z M787.87,375.53v-20.55h25.15v-3.06h-25.15v-19.44h28.77v-3.2h-32.32v49.46h32.95v-3.2H787.87z M765.16,378.74
			h3.27v-49.39h-3.55v43.47l-34.69-43.54h-2.72v49.46h3.55v-42.77L765.16,378.74z M683.52,373.97c-2.18-1.23-3.92-2.86-5.22-4.88
			c-1.3-2.02-2.22-4.33-2.75-6.93c-0.53-2.6-0.8-5.27-0.8-8.01v-24.87h-3.55v24.87c0,3.16,0.34,6.22,1.01,9.19
			c0.67,2.97,1.81,5.63,3.41,7.98c1.6,2.35,3.73,4.23,6.37,5.64c2.65,1.42,5.92,2.12,9.82,2.12c3.81,0,7.02-0.67,9.65-2.02
			c2.62-1.35,4.75-3.17,6.37-5.47c1.63-2.3,2.8-4.96,3.52-7.98c0.72-3.02,1.08-6.18,1.08-9.47v-24.87h-3.55v24.87
			c0,2.65-0.27,5.27-0.8,7.87c-0.53,2.6-1.45,4.92-2.75,6.97c-1.3,2.04-3.05,3.69-5.26,4.95c-2.21,1.25-4.98,1.88-8.32,1.88
			C688.45,375.81,685.71,375.2,683.52,373.97 M661.16,329.28h-39.77v3.2h18.11v46.25h3.55v-46.25h18.11V329.28z M590.32,359.23
			c0.14-2.09,0.59-4.03,1.36-5.82c0.77-1.79,1.79-3.32,3.06-4.6c1.28-1.28,2.75-2.27,4.42-3c1.67-0.72,3.46-1.08,5.36-1.08
			c1.9,0,3.69,0.36,5.36,1.08c1.67,0.72,3.15,1.72,4.42,3c1.28,1.28,2.32,2.8,3.13,4.56c0.81,1.77,1.29,3.72,1.43,5.85H590.32z
			 M609.55,378.77c1.58-0.44,3.03-1.06,4.35-1.85c1.32-0.79,2.48-1.73,3.48-2.82c1-1.09,1.78-2.29,2.33-3.59l-3.07-0.84
			c-0.46,1.02-1.1,1.96-1.92,2.82c-0.81,0.86-1.74,1.59-2.79,2.19c-1.04,0.6-2.18,1.08-3.41,1.43c-1.23,0.35-2.47,0.52-3.73,0.52
			c-1.9,0-3.69-0.37-5.36-1.11c-1.67-0.74-3.15-1.76-4.42-3.07c-1.28-1.3-2.33-2.84-3.17-4.63c-0.84-1.79-1.32-3.73-1.46-5.82h31.83
			c0-0.09,0.01-0.31,0.04-0.66c0.02-0.35,0.03-0.64,0.03-0.87c0-2.51-0.45-4.89-1.36-7.14c-0.91-2.25-2.15-4.23-3.73-5.92
			c-1.58-1.69-3.45-3.04-5.61-4.04c-2.16-1-4.52-1.5-7.07-1.5c-2.51,0-4.85,0.49-7.04,1.46c-2.18,0.98-4.06,2.31-5.64,4.01
			c-1.58,1.7-2.82,3.67-3.73,5.92c-0.91,2.25-1.36,4.66-1.36,7.21c0,2.6,0.45,5.04,1.36,7.31c0.91,2.28,2.16,4.28,3.76,6.03
			c1.6,1.74,3.49,3.11,5.68,4.11c2.18,1,4.55,1.5,7.11,1.5C606.34,379.43,607.97,379.21,609.55,378.77 M551.17,394.2
			c0.23,0.04,0.46,0.07,0.7,0.07h0.7c1.63,0,3.01-0.27,4.14-0.8c1.14-0.53,2.06-1.64,2.75-3.31l19.85-47.65h-3.41l-13.44,32.81
			l-14.35-32.81h-3.69l16.16,36.22c-0.98,2.41-1.79,4.38-2.44,5.89c-0.65,1.51-1.18,2.68-1.6,3.52c-0.42,0.84-0.76,1.43-1.01,1.78
			c-0.26,0.35-0.48,0.57-0.66,0.66c-0.42,0.23-1.03,0.37-1.85,0.42c-0.81,0.04-1.43,0.07-1.85,0.07V394.2z M507.43,359.23
			c0.14-2.09,0.59-4.03,1.36-5.82c0.77-1.79,1.79-3.32,3.06-4.6c1.28-1.28,2.75-2.27,4.42-3c1.67-0.72,3.46-1.08,5.36-1.08
			c1.9,0,3.69,0.36,5.36,1.08c1.67,0.72,3.15,1.72,4.42,3c1.28,1.28,2.32,2.8,3.13,4.56c0.81,1.77,1.29,3.72,1.43,5.85H507.43z
			 M526.65,378.77c1.58-0.44,3.03-1.06,4.35-1.85c1.32-0.79,2.48-1.73,3.48-2.82c1-1.09,1.78-2.29,2.33-3.59l-3.06-0.84
			c-0.46,1.02-1.1,1.96-1.92,2.82c-0.81,0.86-1.74,1.59-2.79,2.19c-1.04,0.6-2.18,1.08-3.41,1.43c-1.23,0.35-2.47,0.52-3.73,0.52
			c-1.9,0-3.69-0.37-5.36-1.11c-1.67-0.74-3.15-1.76-4.42-3.07c-1.28-1.3-2.33-2.84-3.17-4.63c-0.84-1.79-1.32-3.73-1.46-5.82h31.83
			c0-0.09,0.01-0.31,0.03-0.66c0.02-0.35,0.04-0.64,0.04-0.87c0-2.51-0.45-4.89-1.36-7.14c-0.91-2.25-2.15-4.23-3.73-5.92
			c-1.58-1.69-3.45-3.04-5.61-4.04c-2.16-1-4.52-1.5-7.07-1.5c-2.51,0-4.85,0.49-7.04,1.46c-2.18,0.98-4.06,2.31-5.64,4.01
			c-1.58,1.7-2.82,3.67-3.73,5.92c-0.91,2.25-1.36,4.66-1.36,7.21c0,2.6,0.45,5.04,1.36,7.31c0.91,2.28,2.16,4.28,3.76,6.03
			c1.6,1.74,3.49,3.11,5.68,4.11c2.18,1,4.55,1.5,7.11,1.5C523.45,379.43,525.07,379.21,526.65,378.77"/>
	</g>
</g>
</svg>
