<?xml version="1.0" encoding="utf-8"?>
<!-- Generator: Adobe Illustrator 25.0.1, SVG Export Plug-In . SVG Version: 6.00 Build 0)  -->
<svg version="1.1" id="Layer_1" xmlns="http://www.w3.org/2000/svg" xmlns:xlink="http://www.w3.org/1999/xlink" x="0px" y="0px"
	 viewBox="0 0 1366 768" style="enable-background:new 0 0 1366 768;" xml:space="preserve">
<style type="text/css">
	.st0{fill:#FFFFFF;}
</style>
<g>
	<path class="st0" d="M969.77,477.08v-11.27h18.22v-6.82h-18.22v-10.42h21.08v-7.37h-29.49v43.26h30.04v-7.37H969.77z
		 M943.08,484.46h6.82v-43.2h-8.41v28.33l-22.55-28.39h-6.52v43.26h8.41v-27.72L943.08,484.46z M871.67,457.55
		c0.53-1.73,1.31-3.27,2.35-4.63c1.04-1.36,2.29-2.46,3.78-3.29c1.48-0.83,3.2-1.25,5.15-1.25c1.87,0,3.54,0.4,5.03,1.19
		c1.48,0.79,2.74,1.86,3.78,3.2c1.04,1.34,1.84,2.88,2.41,4.63c0.57,1.75,0.85,3.55,0.85,5.42c0,1.79-0.26,3.55-0.79,5.27
		c-0.53,1.73-1.3,3.28-2.32,4.66c-1.02,1.38-2.26,2.49-3.75,3.32c-1.48,0.83-3.2,1.25-5.15,1.25c-1.91,0-3.62-0.41-5.12-1.22
		c-1.5-0.81-2.77-1.89-3.81-3.23c-1.04-1.34-1.83-2.88-2.38-4.63c-0.55-1.75-0.82-3.55-0.82-5.42
		C870.88,461.04,871.14,459.28,871.67,457.55 M891.1,482.96c2.52-1.2,4.69-2.8,6.52-4.81c1.83-2.01,3.26-4.33,4.3-6.95
		c1.04-2.62,1.55-5.37,1.55-8.26c0-2.72-0.49-5.4-1.46-8.04c-0.97-2.64-2.36-5-4.14-7.07c-1.79-2.07-3.94-3.75-6.46-5.03
		c-2.52-1.28-5.3-1.92-8.35-1.92c-2.96,0-5.71,0.6-8.23,1.8c-2.52,1.2-4.7,2.81-6.55,4.84c-1.85,2.03-3.29,4.37-4.33,7.01
		c-1.04,2.64-1.55,5.4-1.55,8.29c0,2.76,0.49,5.46,1.46,8.1c0.97,2.64,2.37,4.99,4.17,7.04c1.81,2.05,3.97,3.7,6.49,4.94
		c2.52,1.24,5.3,1.86,8.35,1.86C885.84,484.76,888.59,484.16,891.1,482.96 M820.85,441.19l15.66,28.03v15.23h8.35v-15.11
		l15.72-28.15h-9.08l-10.85,20.84l-10.66-20.84H820.85z M792.64,448.57h10.18c0.73,0,1.45,0.17,2.16,0.52
		c0.71,0.35,1.34,0.83,1.89,1.46c0.55,0.63,0.98,1.37,1.31,2.22c0.32,0.85,0.49,1.79,0.49,2.8c0,0.97-0.14,1.89-0.43,2.74
		c-0.29,0.85-0.67,1.6-1.16,2.22c-0.49,0.63-1.07,1.13-1.74,1.49c-0.67,0.37-1.39,0.55-2.16,0.55h-10.54V448.57z M792.64,484.46
		v-14.5h8.29l9.08,14.5h9.51l-10.18-16.27c2.4-1.01,4.3-2.67,5.7-4.97c1.4-2.29,2.1-4.84,2.1-7.65c0-1.75-0.35-3.48-1.04-5.21
		c-0.69-1.73-1.65-3.27-2.86-4.63c-1.22-1.36-2.67-2.46-4.36-3.29c-1.69-0.83-3.52-1.25-5.51-1.25h-19.13v43.26H792.64z
		 M753.4,477.08v-11.27h18.22v-6.82H753.4v-10.42h21.08v-7.37h-29.49v43.26h30.04v-7.37H753.4z M697.03,441.19l17,43.26h7.07
		l16.88-43.26h-8.84l-11.58,32.72l-11.7-32.72H697.03z M670.71,477.08v-11.27h18.22v-6.82h-18.22v-10.42h21.08v-7.37H662.3v43.26
		h30.04v-7.37H670.71z M610.21,448.57h10.18c0.73,0,1.45,0.17,2.16,0.52c0.71,0.35,1.34,0.83,1.89,1.46
		c0.55,0.63,0.98,1.37,1.31,2.22c0.33,0.85,0.49,1.79,0.49,2.8c0,0.97-0.14,1.89-0.43,2.74c-0.28,0.85-0.67,1.6-1.16,2.22
		c-0.49,0.63-1.07,1.13-1.74,1.49c-0.67,0.37-1.39,0.55-2.16,0.55h-10.54V448.57z M610.21,484.46v-14.5h8.29l9.08,14.5h9.51
		l-10.18-16.27c2.4-1.01,4.3-2.67,5.7-4.97c1.4-2.29,2.1-4.84,2.1-7.65c0-1.75-0.34-3.48-1.04-5.21c-0.69-1.73-1.65-3.27-2.86-4.63
		c-1.22-1.36-2.67-2.46-4.36-3.29c-1.69-0.83-3.52-1.25-5.51-1.25H601.8v43.26H610.21z M561.03,457.55
		c0.53-1.73,1.31-3.27,2.35-4.63c1.04-1.36,2.29-2.46,3.78-3.29c1.48-0.83,3.2-1.25,5.15-1.25c1.87,0,3.54,0.4,5.03,1.19
		c1.48,0.79,2.74,1.86,3.78,3.2c1.04,1.34,1.84,2.88,2.41,4.63c0.57,1.75,0.85,3.55,0.85,5.42c0,1.79-0.26,3.55-0.79,5.27
		c-0.53,1.73-1.3,3.28-2.32,4.66c-1.02,1.38-2.26,2.49-3.75,3.32c-1.48,0.83-3.2,1.25-5.15,1.25c-1.91,0-3.62-0.41-5.12-1.22
		c-1.5-0.81-2.77-1.89-3.81-3.23c-1.04-1.34-1.83-2.88-2.38-4.63c-0.55-1.75-0.82-3.55-0.82-5.42
		C560.24,461.04,560.51,459.28,561.03,457.55 M580.47,482.96c2.52-1.2,4.69-2.8,6.52-4.81c1.83-2.01,3.26-4.33,4.3-6.95
		c1.04-2.62,1.55-5.37,1.55-8.26c0-2.72-0.49-5.4-1.46-8.04c-0.97-2.64-2.36-5-4.14-7.07c-1.79-2.07-3.94-3.75-6.46-5.03
		c-2.52-1.28-5.3-1.92-8.35-1.92c-2.96,0-5.71,0.6-8.23,1.8c-2.52,1.2-4.7,2.81-6.55,4.84c-1.85,2.03-3.29,4.37-4.33,7.01
		c-1.04,2.64-1.55,5.4-1.55,8.29c0,2.76,0.49,5.46,1.46,8.1c0.97,2.64,2.37,4.99,4.17,7.04c1.81,2.05,3.97,3.7,6.49,4.94
		c2.52,1.24,5.3,1.86,8.35,1.86C575.21,484.76,577.95,484.16,580.47,482.96 M526.3,484.46v-17.91h17.18v-6.82H526.3v-11.15h20.66
		v-7.37h-29.06v43.26H526.3z M494.74,441.19h-36.01v7.37h13.83v35.89h8.41v-35.89h13.77V441.19z M428.32,448.57h10.18
		c0.73,0,1.45,0.17,2.16,0.52c0.71,0.35,1.34,0.83,1.89,1.46c0.55,0.63,0.98,1.37,1.31,2.22c0.32,0.85,0.49,1.79,0.49,2.8
		c0,0.97-0.14,1.89-0.43,2.74c-0.29,0.85-0.67,1.6-1.16,2.22c-0.49,0.63-1.07,1.13-1.74,1.49s-1.39,0.55-2.16,0.55h-10.54V448.57z
		 M428.32,484.46v-14.5h8.29l9.08,14.5h9.51l-10.18-16.27c2.4-1.01,4.3-2.67,5.7-4.97c1.4-2.29,2.1-4.84,2.1-7.65
		c0-1.75-0.35-3.48-1.04-5.21c-0.69-1.73-1.65-3.27-2.86-4.63c-1.22-1.36-2.67-2.46-4.36-3.29c-1.69-0.83-3.53-1.25-5.51-1.25
		h-19.13v43.26H428.32z M398.47,467.76h-12.25l6.22-17.49L398.47,467.76z M380.86,484.46l3.96-10.79h15.17l3.96,10.79h8.9l-17-43.26
		h-6.82l-17.06,43.26H380.86z"/>
	<path class="st0" d="M1004.19,293.76c-3.72-3.55-7.85-6.19-12.41-7.92c-4.56-1.73-9.75-2.6-15.58-2.6c-4.73,0-9.04,0.55-12.92,1.65
		c-3.89,1.1-7.22,2.72-10.01,4.88c-2.79,2.15-4.96,4.79-6.52,7.92c-1.56,3.13-2.34,6.71-2.34,10.77c0,3.72,0.63,6.8,1.9,9.25
		c1.27,2.45,3.17,4.54,5.7,6.27c2.53,1.73,5.64,3.17,9.31,4.31c3.67,1.14,7.92,2.22,12.73,3.23c4.73,1.01,8.84,2.07,12.35,3.17
		c3.5,1.1,6.44,2.41,8.8,3.93c2.36,1.52,4.12,3.31,5.26,5.38c1.14,2.07,1.71,4.58,1.71,7.54c0,5.83-2.22,10.18-6.65,13.05
		c-4.43,2.87-10.58,4.31-18.43,4.31c-6.84,0-13.01-1.16-18.49-3.48c-5.49-2.32-10.13-5.47-13.93-9.44l-3.42,5.19
		c9.71,8.95,21.58,13.43,35.6,13.43c4.81,0,9.18-0.51,13.11-1.52c3.93-1.01,7.3-2.51,10.13-4.5c2.83-1.98,5.02-4.45,6.59-7.41
		c1.56-2.95,2.34-6.42,2.34-10.39c0-3.97-0.74-7.3-2.22-10.01c-1.48-2.7-3.59-4.98-6.33-6.84c-2.75-1.86-6.06-3.4-9.94-4.62
		c-3.89-1.22-8.28-2.34-13.17-3.36c-4.56-0.93-8.51-1.88-11.85-2.85c-3.34-0.97-6.08-2.11-8.23-3.42c-2.15-1.31-3.74-2.93-4.75-4.88
		c-1.01-1.94-1.52-4.35-1.52-7.22c0-5.66,2-10.15,6.02-13.49c4.01-3.34,10.41-5,19.19-5c10.64,0,18.87,3.25,24.7,9.76
		L1004.19,293.76z M873.46,367.99v-37.37h45.73v-5.57h-45.73V289.7h52.32v-5.83h-58.78v89.94h59.92v-5.83H873.46z M832.16,373.81
		h5.95V284h-6.46v79.05l-63.08-79.17h-4.94v89.94h6.46v-77.78L832.16,373.81z M683.7,365.14c-3.97-2.24-7.14-5.19-9.5-8.87
		c-2.37-3.67-4.03-7.87-5-12.61c-0.97-4.73-1.46-9.58-1.46-14.57v-45.22h-6.46v45.22c0,5.75,0.61,11.32,1.84,16.72
		c1.22,5.41,3.29,10.24,6.21,14.51c2.91,4.27,6.78,7.69,11.59,10.26c4.81,2.58,10.77,3.86,17.86,3.86c6.92,0,12.77-1.22,17.55-3.67
		c4.77-2.45,8.63-5.76,11.59-9.94c2.96-4.18,5.09-9.01,6.4-14.5c1.31-5.49,1.96-11.23,1.96-17.23v-45.22h-6.46v45.22
		c0,4.82-0.49,9.59-1.46,14.31c-0.97,4.73-2.64,8.95-5,12.67c-2.37,3.72-5.55,6.71-9.56,8.99c-4.01,2.28-9.06,3.42-15.14,3.42
		C692.65,368.49,687.67,367.38,683.7,365.14 M643.04,283.87H570.7v5.83h32.94v84.11h6.46V289.7h32.94V283.87z M514.2,338.34
		c0.25-3.8,1.08-7.32,2.47-10.58c1.39-3.25,3.25-6.04,5.57-8.36c2.32-2.32,5-4.14,8.04-5.45c3.04-1.31,6.29-1.96,9.75-1.96
		c3.46,0,6.71,0.66,9.75,1.96c3.04,1.31,5.72,3.13,8.04,5.45c2.32,2.32,4.22,5.09,5.7,8.3c1.48,3.21,2.34,6.76,2.6,10.64H514.2z
		 M549.17,373.88c2.87-0.8,5.51-1.92,7.92-3.36c2.41-1.43,4.52-3.14,6.33-5.13c1.81-1.98,3.23-4.16,4.24-6.52l-5.57-1.52
		c-0.85,1.86-2.01,3.57-3.48,5.13c-1.48,1.56-3.17,2.89-5.07,3.99c-1.9,1.1-3.97,1.96-6.21,2.6c-2.24,0.63-4.5,0.95-6.78,0.95
		c-3.46,0-6.71-0.67-9.75-2.03c-3.04-1.35-5.72-3.21-8.04-5.58c-2.33-2.36-4.24-5.17-5.76-8.42c-1.52-3.25-2.41-6.78-2.66-10.58
		h57.89c0-0.17,0.02-0.57,0.06-1.2c0.04-0.63,0.06-1.16,0.06-1.58c0-4.56-0.82-8.89-2.47-12.98c-1.65-4.1-3.91-7.68-6.78-10.77
		c-2.87-3.08-6.27-5.53-10.2-7.35c-3.93-1.82-8.21-2.72-12.86-2.72c-4.56,0-8.83,0.89-12.79,2.66c-3.97,1.77-7.39,4.2-10.26,7.28
		c-2.87,3.08-5.13,6.67-6.78,10.77c-1.65,4.1-2.47,8.47-2.47,13.11c0,4.73,0.82,9.17,2.47,13.3c1.65,4.14,3.93,7.79,6.84,10.96
		c2.91,3.17,6.35,5.66,10.32,7.47c3.97,1.82,8.28,2.72,12.92,2.72C543.34,375.08,546.3,374.68,549.17,373.88 M443.01,401.94
		c0.42,0.08,0.84,0.13,1.27,0.13h1.27c2.96,0,5.47-0.49,7.54-1.46c2.07-0.97,3.74-2.98,5-6.02l36.1-86.65h-6.21l-24.45,59.67
		l-26.1-59.67h-6.71l29.39,65.87c-1.77,4.39-3.25,7.96-4.43,10.7c-1.18,2.74-2.15,4.88-2.91,6.4c-0.76,1.52-1.37,2.6-1.84,3.23
		c-0.46,0.63-0.87,1.03-1.2,1.2c-0.76,0.42-1.88,0.67-3.36,0.76c-1.48,0.08-2.6,0.13-3.36,0.13V401.94z M363.46,338.34
		c0.25-3.8,1.08-7.32,2.47-10.58c1.39-3.25,3.25-6.04,5.57-8.36c2.32-2.32,5-4.14,8.04-5.45c3.04-1.31,6.29-1.96,9.75-1.96
		c3.46,0,6.71,0.66,9.75,1.96c3.04,1.31,5.72,3.13,8.04,5.45c2.32,2.32,4.22,5.09,5.7,8.3c1.48,3.21,2.34,6.76,2.6,10.64H363.46z
		 M398.42,373.88c2.87-0.8,5.51-1.92,7.92-3.36c2.41-1.43,4.52-3.14,6.33-5.13c1.82-1.98,3.23-4.16,4.24-6.52l-5.57-1.52
		c-0.85,1.86-2.01,3.57-3.48,5.13c-1.48,1.56-3.17,2.89-5.07,3.99c-1.9,1.1-3.97,1.96-6.21,2.6c-2.24,0.63-4.5,0.95-6.78,0.95
		c-3.46,0-6.71-0.67-9.75-2.03c-3.04-1.35-5.72-3.21-8.04-5.58c-2.33-2.36-4.24-5.17-5.76-8.42c-1.52-3.25-2.41-6.78-2.66-10.58
		h57.89c0-0.17,0.02-0.57,0.06-1.2c0.04-0.63,0.06-1.16,0.06-1.58c0-4.56-0.82-8.89-2.47-12.98c-1.65-4.1-3.91-7.68-6.78-10.77
		c-2.87-3.08-6.27-5.53-10.2-7.35c-3.93-1.82-8.21-2.72-12.86-2.72c-4.56,0-8.83,0.89-12.79,2.66c-3.97,1.77-7.39,4.2-10.26,7.28
		c-2.87,3.08-5.13,6.67-6.78,10.77c-1.65,4.1-2.47,8.47-2.47,13.11c0,4.73,0.82,9.17,2.47,13.3c1.65,4.14,3.93,7.79,6.84,10.96
		c2.91,3.17,6.35,5.66,10.32,7.47c3.97,1.82,8.28,2.72,12.92,2.72C392.6,375.08,395.55,374.68,398.42,373.88"/>
</g>
</svg>
